<?xml version="1.0" encoding="UTF-8" standalone="no"?>
<svg
   width="502.15469"
   height="503.94073"
   preserveAspectRatio="none"
   style="display:block"
   viewBox="0 0 1004.3094 1007.8815"
   id="a215dd20-1c3f-4030-acfa-6278081fe8c7"
   version="1.1"
   xmlns="http://www.w3.org/2000/svg"
   xmlns:svg="http://www.w3.org/2000/svg">
  <defs
     id="defs20">
    <linearGradient
       id="Gradient1"
       x1="1372.2"
       x2="1208.25"
       y1="1324.86"
       y2="951.34998"
       gradientUnits="userSpaceOnUse"
       gradientTransform="matrix(1,0,0,1.090183,-589.49065,-588.97455)">
      <stop
         class="stop0"
         offset="0"
         stop-color="#151414"
         id="stop1" />
      <stop
         class="stop1"
         offset="1"
         stop-color="#32312F"
         id="stop2" />
    </linearGradient>
    <linearGradient
       id="Gradient2"
       x1="1283.14"
       x2="1209.11"
       y1="1052.08"
       y2="844.26202"
       gradientUnits="userSpaceOnUse"
       gradientTransform="matrix(1,0,0,1.090183,-589.49065,-588.97455)">
      <stop
         class="stop0"
         offset="0"
         stop-color="#ECCA85"
         id="stop3" />
      <stop
         class="stop1"
         offset="1"
         stop-color="#FFF7C7"
         id="stop4" />
    </linearGradient>
    <linearGradient
       id="Gradient3"
       x1="963.172"
       x2="776.95599"
       y1="1519.84"
       y2="954.099"
       gradientUnits="userSpaceOnUse"
       gradientTransform="matrix(1,0,0,1.090183,-589.49065,-588.97455)">
      <stop
         class="stop0"
         offset="0"
         stop-color="#1657AE"
         id="stop5" />
      <stop
         class="stop1"
         offset="1"
         stop-color="#4787D4"
         id="stop6" />
    </linearGradient>
    <linearGradient
       id="Gradient4"
       x1="756.17102"
       x2="754.896"
       y1="615.85901"
       y2="650.32599"
       gradientUnits="userSpaceOnUse"
       gradientTransform="matrix(1,0,0,1.090183,-589.49065,-588.97455)">
      <stop
         class="stop0"
         offset="0"
         stop-color="#B4BCBD"
         id="stop7" />
      <stop
         class="stop1"
         offset="1"
         stop-color="#E6E8E6"
         id="stop8" />
    </linearGradient>
    <linearGradient
       id="Gradient5"
       x1="947.01202"
       x2="946.76801"
       y1="631.71301"
       y2="606.60797"
       gradientUnits="userSpaceOnUse"
       gradientTransform="matrix(1,0,0,1.090183,-589.49065,-588.97455)">
      <stop
         class="stop0"
         offset="0"
         stop-color="#0F4FA2"
         id="stop9" />
      <stop
         class="stop1"
         offset="1"
         stop-color="#2B67B0"
         id="stop10" />
    </linearGradient>
    <linearGradient
       id="Gradient6"
       x1="986.56799"
       x2="985.66699"
       y1="606.90802"
       y2="627.67401"
       gradientUnits="userSpaceOnUse"
       gradientTransform="matrix(1,0,0,1.090183,-589.49065,-588.97455)">
      <stop
         class="stop0"
         offset="0"
         stop-color="#96A3A5"
         id="stop11" />
      <stop
         class="stop1"
         offset="1"
         stop-color="#B9C1C0"
         id="stop12" />
    </linearGradient>
    <linearGradient
       id="Gradient7"
       x1="1091.26"
       x2="803.33197"
       y1="885.77899"
       y2="535.73102"
       gradientUnits="userSpaceOnUse"
       gradientTransform="matrix(1,0,0,1.090183,-589.49065,-588.97455)">
      <stop
         class="stop0"
         offset="0"
         stop-color="#CBE0DD"
         id="stop13" />
      <stop
         class="stop1"
         offset="1"
         stop-color="#F3F7F7"
         id="stop14" />
    </linearGradient>
    <linearGradient
       id="Gradient8"
       x1="945.22498"
       x2="943.13702"
       y1="600.65198"
       y2="534.26099"
       gradientUnits="userSpaceOnUse"
       gradientTransform="matrix(1,0,0,1.090183,-589.49065,-588.97455)">
      <stop
         class="stop0"
         offset="0"
         stop-color="#65A6E8"
         id="stop15" />
      <stop
         class="stop1"
         offset="1"
         stop-color="#98CAF9"
         id="stop16" />
    </linearGradient>
    <linearGradient
       id="Gradient9"
       x1="1003.22"
       x2="807.85901"
       y1="953.52502"
       y2="492.63199"
       gradientUnits="userSpaceOnUse"
       gradientTransform="matrix(1,0,0,1.090183,-589.49065,-588.97455)">
      <stop
         class="stop0"
         offset="0"
         stop-color="#4585D3"
         id="stop17" />
      <stop
         class="stop1"
         offset="1"
         stop-color="#68A5E7"
         id="stop18" />
    </linearGradient>
    <linearGradient
       id="Gradient10"
       x1="1476.17"
       x2="1117.17"
       y1="1352.48"
       y2="902.66101"
       gradientUnits="userSpaceOnUse"
       gradientTransform="matrix(1,0,0,1.090183,-589.49065,-588.97455)">
      <stop
         class="stop0"
         offset="0"
         stop-color="#D4933C"
         id="stop19" />
      <stop
         class="stop1"
         offset="1"
         stop-color="#F7D67C"
         id="stop20" />
    </linearGradient>
  </defs>
  <path
     fill="url(#Gradient10)"
     d="m 19.155346,53.077831 c 4.057,-14.30102 25.888,-34.03006 37.939,-40.56789 13.352,-7.2431706 27.295,-10.4679406 42.13,-11.1656506 C 126.23435,0.07531041 153.40235,0.52338041 180.42935,0.55063041 l 141.892,0.14282 182.268,0.0382 c 30.64,0.004 112.01,-3.70771001 138.2,5.55121999 21.95,7.7577406 42.57,22.0794706 53.31,45.1248506 19.34,37.34858 15.4,88.497789 15.41,130.510169 l 0.05,135.70816 c 77.56,1.43468 151.54,35.8474 206.16,95.90122 8.19,9.13355 25.57,31.05822 31.2,42.43101 24,38.65244 36.3,75.75355 44.64,121.01799 13.01995,16.3855 11.08995,73.4674 9.87995,95.3038 -5.56995,100.7111 -56.14995,201.8801 -136.84995,253.3694 -5.15,3.2815 -13.75,5.451 -19.26,8.4272 -46.4,28.0068 -94.14,38.756 -146.61,40.9799 -8.66,0.3598 -27.99,14.9137 -37.29,18.1843 -14.84,6.3776 -29.25,11.04353 -45.02,12.02473 -85.5,5.3309 -171.42,0.9049 -256.893,0.6541 l -154.8,0.1744 c -46.211,0.3925 -92.984,2.7473 -138.688004,-4.9167 -9.636,-1.61353 -23.552,-9.36473 -30.949,-16.64713 -29.4220001,-28.9443 -33.4200001,-55.8501 -36.18200011,-96.6011 -0.531,-7.8384 -1.581,-36.314 -0.251,-42.4299 l 0.86800001,0.1853 c 0.534,10.771 0.819,21.3022 1.434,32.1604 l 0.704,0.3053 c 2.409,-6.6283 1.467,-40.3695 1.434,-49.2872 l 0.354,-127.0608 c -0.033,-13.3548 -2.127,-62.7837 1.17,-71.2544 0.616,-27.2655 -0.122,-55.4031 0.183,-82.8866 -0.764,-32.44391 -0.22,-67.88031 -0.256,-100.46697 l -0.058,-200.4574 -0.209,-89.30016 c -0.059,-17.81795 -0.862,-55.12401 2.6,-71.288159 0.698,-11.30737 5.0270001,-23.36698 10.2850001,-33.0707 z"
     id="path21"
     style="fill:url(#Gradient10);stroke-width:1.04412" />
  <path
     fill="url(#Gradient9)"
     d="m 19.155346,53.077831 c 4.057,-14.30102 25.888,-34.03006 37.939,-40.56789 13.352,-7.2431706 27.295,-10.4679406 42.13,-11.1656506 C 126.23435,0.07531041 153.40235,0.52338041 180.42935,0.55063041 l 141.892,0.14282 182.268,0.0382 c 30.64,0.004 112.01,-3.70771001 138.2,5.55121999 21.95,7.7577406 42.57,22.0794706 53.31,45.1248506 19.34,37.34858 15.4,88.497789 15.41,130.510169 l 0.05,135.70816 c -58.93,1.57314 -96.86,9.10085 -150.3,39.51477 -3.46,3.78076 -13.3,9.42028 -18.41,13.17814 -12.77,9.39737 -24.34,18.88306 -36.04,29.84376 -6.19,5.80086 -13.62,18.64213 -20.19,20.64261 l 0.09,-17.4233 c -0.97,1.82387 -1.89,3.63685 -2.68,5.56429 l -1.58,0.61159 c -0.41,-5.71583 1.8,-8.50015 0.37,-12.61559 l -1.2,0.49276 c -0.02,3.70335 0.44,2.49652 -0.98,5.45854 l -1.15,-0.23111 0.79,-4.6311 c -5.85,-1.11526 -13.38,-3.62595 -19.14,-4.03041 -7.5,-0.52547 -9.65,9.62196 -16.75,9.44862 -2.62,-2.07026 -2.74,-3.3207 -3.88,-6.62177 l -0.39,-1.14034 -1.03,2.6655 c 1.6,25.52119 5.22,57.95522 -9.8,78.95433 -5.33,4.58313 -13.29,7.01968 -19.93,8.62334 -16.163,3.90504 -91.302,5.03011 -104.611,-2.87263 -9.207,-5.46727 -12.302,-18.2671 -19.665,-22.95162 -0.425,-0.27037 -0.864,-0.51239 -1.296,-0.76749 l 1.09,5.11405 c -0.149,0.61159 -5.473,16.02024 -6.447,16.83133 -8.322,6.93357 -34.774,4.61802 -43.613,-0.55054 -2.767,-1.61783 -6.35,-13.65672 -5.834,-18.43717 -22.605,48.32018 -56.727,29.15367 -98.571,33.06743 -19.772,1.85004 -35.552004,-1.74321 -48.585004,-19.53281 0.34,7.11235 0.415,18.30526 5.883,23.33428 7.472,6.13118 14.527004,9.02017 14.761004,20.83775 0.051,2.52923 0.543,13.62729 -1.005,15.24076 -8.535004,8.90675 -45.797004,32.13865 -55.835004,23.02475 -1.168,-3.7503 -1.487,-5.2438 -3.473,-8.667 -1.91,-0.9812 -11.077,-4.7968 -11.546,-5.7671 -3.983,-8.23089 -11.424,-11.68677 -19.776,-9.53911 -1.4430001,-3.73932 -0.68,-3.78293 -1.2210001,-6.18133 -2.368,-10.46576 1.0130001,-58.25393 -1.467,-66.04983 -0.289,13.17595 0.707,78.55422 -1.355,85.59687 -0.764,-32.44391 -0.22,-67.88031 -0.256,-100.46697 l -0.058,-200.4574 -0.209,-89.30016 c -0.059,-17.81795 -0.862,-55.12401 2.6,-71.288159 0.698,-11.30737 5.0270001,-23.36698 10.2850001,-33.0707 z"
     id="path22"
     style="fill:url(#Gradient9);stroke-width:1.04412" />
  <path
     fill="#fbfbfb"
     d="m 75.264346,457.28062 c -3.006,-13.60657 -3.035,-40.90911 -1.992,-55.51647 0.924,-12.94157 6.795,-26.23526 16.508,-34.29716 5.345,-4.39671 11.585004,-7.32276 18.188004,-8.5285 6.582,-1.24717 13.606,-1.23409 20.258,-1.13052 21.134,0.32814 42.218,-0.84599 63.297,1.03131 43.667,3.88759 43.751,61.83082 38.777,95.39973 -0.197,1.16868 -1.305,7.27152 -1.317,8.05755 -22.605,48.32018 -56.727,29.15367 -98.571,33.06743 -19.772,1.85004 -35.552004,-1.74321 -48.585004,-19.53281 -3.626,-8.10442 -4.79,-9.63831 -6.563,-18.55056 z"
     id="path23"
     style="stroke-width:1.04412" />
  <path
     fill="#d8d7d7"
     d="m 75.264346,457.28062 c 11.961,8.02266 9.992,28.38728 36.502004,30.2951 25.661,1.76392 52.036,1.97323 77.732,0.4328 26.518,-1.58948 27.849,-16.91419 40.802,-33.76951 -0.197,1.16868 -1.305,7.27152 -1.317,8.05755 -22.605,48.32018 -56.727,29.15367 -98.571,33.06743 -19.772,1.85004 -35.552004,-1.74321 -48.585004,-19.53281 -3.626,-8.10442 -4.79,-9.63831 -6.563,-18.55056 z"
     id="path24"
     style="stroke-width:1.04412" />
  <path
     fill="#fbfbfb"
     d="m 283.78735,459.33889 c -4.573,-17.42985 -5.887,-60.10615 2.179,-77.44224 17.52,-37.65492 84.204,-21.43954 116.171,-23.28522 19.262,-1.11199 32.122,20.95332 36.952,39.74153 1.6,25.52119 5.22,57.95522 -9.8,78.95433 -5.33,4.58313 -13.29,7.01968 -19.93,8.62334 -16.163,3.90504 -91.302,5.03011 -104.611,-2.87263 -9.207,-5.46727 -12.302,-18.2671 -19.665,-22.95162 -0.425,-0.27037 -0.864,-0.51239 -1.296,-0.76749 z"
     id="path25"
     style="stroke-width:1.04412" />
  <path
     fill="url(#Gradient8)"
     d="m 19.155346,53.077831 c 4.057,-14.30102 25.888,-34.03006 37.939,-40.56789 13.352,-7.2431706 27.295,-10.4679406 42.13,-11.1656506 C 126.23435,0.07531041 153.40235,0.52338041 180.42935,0.55063041 l 141.892,0.14282 182.268,0.0382 c 30.64,0.004 112.01,-3.70771001 138.2,5.55121999 21.95,7.7577406 42.57,22.0794706 53.31,45.1248506 l -1.38,2.7985 c -5.87,-1.10108 -9.3,-9.35377 -13.79,-13.74394 -5.18,-5.05626 -10.05,-9.62631 -15.86,-13.8257 -11.7,-8.31155 -24.92,-13.73303 -38.74,-15.88723 -18.8,-3.0514306 -67.24,-2.1629306 -87.99,-2.1836406 l -157,-0.0818 -180.79,-0.2006 c -27.649,-0.0709 -55.373,-0.0294 -82.998,0.17334 -39.402004,0.2889 -69.931004,8.8904406 -92.183004,47.0817406 l -2.221,1.05529 c -1.251,2.76689 -3.194,7.16032 -6.141,7.72068 -0.027,-2.08879 1.457,-6.53892 1.847,-9.14555 z"
     id="path26"
     style="fill:url(#Gradient8);stroke-width:1.04412" />
  <path
     fill="#fbfbfb"
     d="m 486.70935,403.38198 c 0.62,-2.13131 0.69,-5.50543 1.27,-7.87221 10.53,-42.70901 42.09,-38.15423 73.28,-38.369 -3.46,3.78076 -13.3,9.42028 -18.41,13.17814 -12.77,9.39737 -24.34,18.88306 -36.04,29.84376 -6.19,5.80086 -13.62,18.64213 -20.19,20.64261 z"
     id="path27"
     style="stroke-width:1.04412" />
  <path
     fill="#7bb1ee"
     d="m 19.155346,53.077831 -0.302,2.09097 c -0.39,2.60663 -1.874,7.05676 -1.847,9.14555 2.947,-0.56036 4.89,-4.95379 6.141,-7.72068 l 2.221,-1.05529 c -4.608,8.96457 -8.679,18.24421 -12.188,27.78113 -1.347,3.56163 -0.942,4.7641 -2.495,8.08916 l -1.2930001,-0.0698 c 0.351,-4.00315 0.9670001,-2.73853 -0.522,-5.19036 0.698,-11.30737 5.0270001,-23.36698 10.2850001,-33.0707 z"
     id="path28"
     style="stroke-width:1.04412" />
  <path
     fill="url(#Gradient7)"
     d="m 74.905346,110.90877 c 0.133,-17.988019 16.298,-35.053739 31.980004,-36.667219 20.908,-2.15202 43.363,-1.37363 64.378,-1.33111 l 106.119,0.16026 215.637,-0.0621 c 39.21,-0.009 84.36,-1.85004 123.49,2.1989 13.97,1.44558 28.3,22.62565 26.21,39.320719 0.21,5.0857 0.78,11.49925 0.63,16.35383 0.26,21.6772 0.36,43.35658 0.28,65.03596 0,17.34045 1.72,44.11426 -5.63,59.35065 1.15,21.97155 -28.94,28.53009 -44.46,28.67727 -36.08,0.34122 -72.13,0.26055 -108.21,0.25183 l -204.546,-0.0916 -112.257,0.0959 c -20.707,0.012 -41.89,0.58979 -62.526,-1.45648 -7.541004,-0.74896 -15.429004,-6.31652 -21.529004,-10.93781 -3.636,-3.02526 -5.084,-9.83781 -5.475,-14.75454 -8.59,-21.83418 -6.7,-99.03767 -5.432,-125.78204 -0.486,-6.9739 0.534,-13.4267 1.341,-20.36244 z"
     id="path29"
     style="fill:url(#Gradient7);stroke-width:1.04412" />
  <path
     fill="url(#Gradient6)"
     d="m 74.905346,110.90877 c 0.133,-17.988019 16.298,-35.053739 31.980004,-36.667219 20.908,-2.15202 43.363,-1.37363 64.378,-1.33111 l 106.119,0.16026 215.637,-0.0621 c 39.21,-0.009 84.36,-1.85004 123.49,2.1989 13.97,1.44558 28.3,22.62565 26.21,39.320719 0.21,5.0857 0.78,11.49925 0.63,16.35383 -5.47,-2.01793 -6.38,-12.70172 -7.78,-18.31289 -2.69,-1.6102 -6.39,-4.71395 -9.18,-6.67628 -11.6,-8.169829 -38.32,-10.673979 -51.02,-7.183219 l -16.02,0.17552 c 0.03,4.374909 0.35,11.037009 -0.36,15.095769 -0.92,-5.13695 -0.63,-11.04901 -0.61,-16.358199 l -306.221,-2.50306 c -27.472,-0.39683 -55.019,-0.3216 -82.491,0.26491 -21.466,0.45897 -43.634,-1.0662 -64.646,4.16123 -10.989004,2.835569 -17.780004,9.314529 -24.479004,18.794759 -6.695,2.96966 -4.907,5.97747 -6.978,12.93066 -0.486,-6.9739 0.534,-13.4267 1.341,-20.36244 z"
     id="path30"
     style="fill:url(#Gradient6);stroke-width:1.04412" />
  <path
     fill="url(#Gradient5)"
     d="m 74.905346,110.90877 c 0.133,-17.988019 16.298,-35.053739 31.980004,-36.667219 20.908,-2.15202 43.363,-1.37363 64.378,-1.33111 l 106.119,0.16026 215.637,-0.0621 c 39.21,-0.009 84.36,-1.85004 123.49,2.1989 13.97,1.44558 28.3,22.62565 26.21,39.320719 -4.29,-20.880279 -15.34,-30.973189 -34.74,-32.799249 -19.03,-1.79226 -37.48,-1.19702 -56.55,-1.09781 l -82.75,0.13845 -287.564,0.0436 c -14.074,-0.0905 -28.263,-0.23766 -42.33,-0.2224 -27.284,0.0283 -52.220004,-2.6426 -63.880004,30.317989 z"
     id="path31"
     style="fill:url(#Gradient5);stroke-width:1.04412" />
  <path
     fill="url(#Gradient4)"
     d="m 74.905346,110.90877 c 11.66,-32.960589 36.596004,-30.289639 63.880004,-30.317989 14.067,-0.0153 28.256,0.13191 42.33,0.2224 l -1.783,0.45242 c -3.94,0.96046 -8.489,1.09455 -11.764,1.90128 l 63.246,3.46024 c 7.904,0.46006 19.837,0.27146 27.146,2.14548 -4.147,3.16808 -44.893,2.19127 -52.732,1.25589 -18.891,-2.25667 -37.797,-0.97135 -56.732,-0.96045 -19.908,0.012 -62.732004,-4.43813 -67.447004,25.111279 -0.211,1.38017 -0.38,2.76797 -0.507,4.16123 -6.695,2.96966 -4.907,5.97747 -6.978,12.93066 -0.486,-6.9739 0.534,-13.4267 1.341,-20.36244 z"
     id="path32"
     style="fill:url(#Gradient4);stroke-width:1.04412" />
  <path
     fill="#b6b9ba"
     d="m 252.15835,95.119651 c 6.825,-1.84459 53.887,-1.08473 64.103,-1.08037 l 164.058,0.11992 c 29.33,-0.17879 58.36,-3.10593 87.86,-2.4104 17.31,0.40773 61.85,-4.26261 67.39,20.820319 -2.69,-1.6102 -6.39,-4.71395 -9.18,-6.67628 -11.6,-8.169829 -38.32,-10.673979 -51.02,-7.183219 l -16.02,0.17552 c 0.03,4.374909 0.35,11.037009 -0.36,15.095769 -0.92,-5.13695 -0.63,-11.04901 -0.61,-16.358199 z"
     id="path33"
     style="stroke-width:1.04412" />
  <path
     fill="#3f3f3f"
     d="m 559.34935,98.885141 16.02,-0.17552 0.06,14.564849 c 11.86,1.70613 16.07,2.70801 26.84,8.26685 l -7.79,20.5565 c -7.53,-4.45558 -10.72,-6.50295 -19.24,-8.7291 l 0.2,28.90184 c 11.92,5.51088 24.37,10.79717 29.99,24.86054 3.02,7.67706 3.1,16.35165 0.22,24.09304 -5.23,14.10697 -17.35,19.97106 -29.65,24.56945 -0.54,5.72346 -0.35,13.17923 -0.37,19.05422 l -15.85,0.32597 -0.2,-18.57345 c -13.28,-2.06263 -20.34,-3.68155 -31.99,-11.53414 l 7.28,-19.65273 c 10.13,5.55994 13.32,7.27262 24.58,9.82146 l 0.12,-32.34682 c -4.94,-2.11822 -9.67,-4.03585 -14.17,-7.2072 -23.78,-16.78336 -17.44,-50.44931 8.75,-60.12141 1.59,-0.59306 3.2,-1.11962 4.84,-1.57858 0.71,-4.05876 0.39,-10.72086 0.36,-15.095769 z"
     id="path34"
     style="stroke-width:1.04412" />
  <path
     fill="#fbfbfb"
     d="m 575.68935,189.57747 c 5.53,2.14548 10,4.34983 11.86,10.69687 -0.14,4.1645 -0.67,4.50137 -3,7.72613 -2.97,2.37551 -4.57,4.61474 -8.08,2.81267 -1.83,-4.34329 -0.87,-15.56672 -0.78,-21.23567 z m -17.65,-56.01906 c 1.91,3.30653 2.86,19.16651 -0.47,21.83092 l -2.94,-1.57859 c -0.74,-0.88523 -1.44,-1.80534 -2.1,-2.75816 -6,-8.53286 -1.19,-12.94374 5.51,-17.49417 z"
     id="path35"
     style="stroke-width:1.04412" />
  <path
     fill="#7bb1ee"
     d="m 637.99935,255.26862 c 1.15,21.97155 -28.94,28.53009 -44.46,28.67727 -36.08,0.34122 -72.13,0.26055 -108.21,0.25183 l -204.546,-0.0916 -112.257,0.0959 c -20.707,0.012 -41.89,0.58979 -62.526,-1.45648 -7.541004,-0.74896 -15.429004,-6.31652 -21.529004,-10.93781 -3.636,-3.02526 -5.084,-9.83781 -5.475,-14.75454 9.926,13.18795 18.056,18.51785 34.055004,19.07057 30.685,1.05966 61.5,0.6225 92.217,0.64321 l 179.859,0.0436 145.982,-0.0163 c 24.23,-0.0316 50.25,0.49821 74.4,-0.88414 15.42,-0.88305 23.28,-8.16765 32.49,-20.64153 z"
     id="path36"
     style="stroke-width:1.04412" />
  <path
     fill="url(#Gradient3)"
     d="m 439.08935,398.35296 1.03,-2.6655 0.39,1.14034 c 1.14,3.30107 1.26,4.55151 3.88,6.62177 7.1,0.17334 9.25,-9.97409 16.75,-9.44862 5.76,0.40446 13.29,2.91515 19.14,4.03041 l -0.79,4.6311 1.15,0.23111 c 1.42,-2.96202 0.96,-1.75519 0.98,-5.45854 l 1.2,-0.49276 c 1.43,4.11544 -0.78,6.89976 -0.37,12.61559 l 1.58,-0.61159 c 0.79,-1.92744 1.71,-3.74042 2.68,-5.56429 l -0.09,17.4233 c -7.84,11.9495 -16.52,22.79573 -24.48,35.01668 -19.65,30.15882 -39.63,77.68862 -45.22,114.70031 -0.93,4.6115 -2.15,9.9316 -2.92,14.5104 l -1.41,11.4251 c -2.093,27.7342 -3.797,70.8946 2.75,97.942 10.07,47.0305 22.22,84.7399 48.29,125.2184 3.63,5.6363 12.85,19.4053 17.28,24.0168 l 5.44,8.1763 c 2.34,17.1377 3.69,22.5559 12.65,37.0445 14.43,15.764 23.23,16.7016 42.97,15.655 49.62,33.3814 81.86,44.6103 139.23,51.5002 27.43,1.6898 61.31,0.8831 88.02,-6.6174 13.46,-2.5619 27.45,-7.7839 40.27,-12.7551 63.1,-24.4528 114.32,-76.4873 147.77,-138.922 8.97,-16.7452 15.31,-32.6401 22.71,-50.3556 18.87,-63.9283 21.90995,-104.1779 13.59,-170.3847 13.01995,16.3855 11.08995,73.4674 9.87995,95.3038 -5.56995,100.7111 -56.14995,201.8801 -136.84995,253.3694 -5.15,3.2815 -13.75,5.451 -19.26,8.4272 -46.4,28.0068 -94.14,38.756 -146.61,40.9799 -8.66,0.3598 -27.99,14.9137 -37.29,18.1843 -14.84,6.3776 -29.25,11.04353 -45.02,12.02473 -85.5,5.331 -171.42,0.9049 -256.893,0.6541 l -154.8,0.1744 c -46.211,0.3925 -92.984,2.7473 -138.688004,-4.9167 -9.636,-1.61353 -23.552,-9.36473 -30.949,-16.64713 -29.4220001,-28.9443 -33.4200001,-55.8501 -36.18200011,-96.6011 -0.531,-7.8384 -1.581,-36.314 -0.251,-42.4299 l 0.86800001,0.1853 c 0.534,10.771 0.819,21.3022 1.434,32.1604 l 0.704,0.3053 c 2.409,-6.6283 1.467,-40.3695 1.434,-49.2872 l 0.354,-127.0608 c -0.033,-13.3548 -2.127,-62.7837 1.17,-71.2544 0.616,-27.2655 -0.122,-55.4031 0.183,-82.8866 2.062,-7.0426 1.066,-72.42087 1.355,-85.59682 2.4800001,7.7959 -0.901,55.58407 1.467,66.04983 0.5410001,2.3984 -0.222,2.44201 1.2210001,6.18133 8.352,-2.14766 15.793,1.30822 19.776,9.53906 0.469,0.9703 9.636,4.7859 11.546,5.7671 1.986,3.4232 2.305,4.9167 3.473,8.667 10.038,9.1139 47.3,-14.1179 55.835004,-23.0247 1.548,-1.61347 1.056,-12.71153 1.005,-15.24076 -0.234,-11.81758 -7.289004,-14.70657 -14.761004,-20.83775 -5.468,-5.02902 -5.543,-16.22193 -5.883,-23.33428 13.033,17.7896 28.813004,21.38285 48.585004,19.53281 41.844,-3.91376 75.966,15.25275 98.571,-33.06743 -0.516,4.78045 3.067,16.81934 5.834,18.43717 8.839,5.16856 35.291,7.48411 43.613,0.55054 0.974,-0.81109 6.298,-16.21974 6.447,-16.83133 l -1.09,-5.11405 c 0.432,0.2551 0.871,0.49712 1.296,0.76749 7.363,4.68452 10.458,17.48435 19.665,22.95162 13.309,7.90274 88.448,6.77767 104.611,2.87263 6.64,-1.60366 14.6,-4.04021 19.93,-8.62334 15.02,-20.99911 11.4,-53.43314 9.8,-78.95433 z"
     id="path37"
     style="fill:url(#Gradient3);stroke-width:1.04412" />
  <path
     fill="#96989e"
     d="m 993.55935,576.97617 c 13.01995,16.3855 11.08995,73.4674 9.87995,95.3038 -5.56995,100.7111 -56.14995,201.8801 -136.84995,253.3694 -5.15,3.2815 -13.75,5.451 -19.26,8.4272 -46.4,28.0068 -94.14,38.756 -146.61,40.9799 -8.66,0.3598 -27.99,14.9137 -37.29,18.1843 -14.84,6.3776 -29.25,11.04353 -45.02,12.02473 -85.5,5.331 -171.42,0.9049 -256.893,0.6541 l -154.8,0.1744 c -46.211,0.3925 -92.984,2.7473 -138.688004,-4.9167 -9.636,-1.61353 -23.552,-9.36473 -30.949,-16.64713 -29.4220001,-28.9443 -33.4200001,-55.8501 -36.18200011,-96.6011 -0.531,-7.8384 -1.581,-36.314 -0.251,-42.4299 l 0.86800001,0.1853 c 0.534,10.771 0.819,21.3022 1.434,32.1604 l 0.704,0.3053 c 2.409,-6.6283 1.467,-40.3695 1.434,-49.2872 l 0.354,-127.0608 c -0.033,-13.3548 -2.127,-62.7837 1.17,-71.2544 2.222,57.409 -0.627,119.5604 0.555,177.1111 0.441,21.4221 -1.746,78.6894 3.7620001,96.8301 2.085,9.4083 4.327,17.2685 8.347,26.0009 40.561,71.63593 96.071004,57.7687 164.783004,57.7797 l 155.196,0.076 178.486,0.087 c 34.56,0.011 69.72,0.8067 104.21,-1.5917 13.05,-0.9157 29.63,-6.8027 40.54,-14.7175 8.06,-4.6768 12.29,-9.2229 18.71,-16.1129 27.43,1.6898 61.31,0.8831 88.02,-6.6174 13.46,-2.5619 27.45,-7.7839 40.27,-12.7551 63.1,-24.4528 114.32,-76.4873 147.77,-138.922 8.97,-16.7452 15.31,-32.6401 22.71,-50.3556 18.87,-63.9283 21.90995,-104.1779 13.59,-170.3847 z"
     id="path38"
     style="stroke-width:1.04412" />
  <path
     fill="#d8d7d7"
     d="m 993.55935,576.97617 c 13.01995,16.3855 11.08995,73.4674 9.87995,95.3038 -5.56995,100.7111 -56.14995,201.8801 -136.84995,253.3694 -5.15,3.2815 -13.75,5.451 -19.26,8.4272 -46.4,28.0068 -94.14,38.756 -146.61,40.9799 -8.66,0.3598 -27.99,14.9137 -37.29,18.1843 -14.84,6.3776 -29.25,11.04353 -45.02,12.02473 -85.5,5.331 -171.42,0.9049 -256.893,0.6541 l -154.8,0.1744 c -46.211,0.3925 -92.984,2.7473 -138.688004,-4.9167 -9.636,-1.61353 -23.552,-9.36473 -30.949,-16.64713 -29.4220001,-28.9443 -33.4200001,-55.8501 -36.18200011,-96.6011 -0.531,-7.8384 -1.581,-36.314 -0.251,-42.4299 l 0.86800001,0.1853 c 0.534,10.771 0.819,21.3022 1.434,32.1604 l 0.704,0.3053 c 2.409,-6.6283 1.467,-40.3695 1.434,-49.2872 l 0.354,-127.0608 c -0.033,-13.3548 -2.127,-62.7837 1.17,-71.2544 2.222,57.409 -0.627,119.5604 0.555,177.1111 0.441,21.4221 -1.746,78.6894 3.7620001,96.8301 2.085,9.4083 4.327,17.2685 8.347,26.0009 3.364,22.9265 18.386,41.3833 34.705,55.1305 13.529,11.4033 27.6,15.85133 44.48,17.29033 26.983004,2.3112 54.059004,1.8533 81.092004,1.7661 l 131.159,-0.4688 200.359,0.665 c 39.6,0.011 78.52,1.45 117.84,-2.9762 28.94,-3.25963 34.75,-17.08313 56.65,-27.90863 5.36,-2.6383 42.12,-3.2488 52.03,-4.3608 54.73,-6.0723 106.51,-30.0018 148.57,-68.6488 35.25,-32.4984 63.54,-73.0096 82.9,-118.6882 4.06,-9.4955 10.05,-24.4964 10.91,-34.9295 18.87,-63.9283 21.90995,-104.1779 13.59,-170.3847 z"
     id="path39"
     style="stroke-width:1.04412" />
  <path
     fill="#fbfbfb"
     d="m 285.00735,667.72297 c -0.363,-1.0574 -0.879,-2.3984 -1.125,-3.6085 -5.079,-34.5479 -11.671,-88.501 29.972,-98.9668 10.741,-2.7036 26.201,-2.5728 37.051,-1.995 20.807,1.1011 47.624,-4.3389 66.014,7.3696 -0.93,4.6115 -2.15,9.9316 -2.92,14.5104 l -1.41,11.4251 c -2.093,27.7342 -3.797,70.8946 2.75,97.942 -17.602,11.218 -61.302,4.5897 -81.991,6.334 -21.61,1.8206 -41.675,-8.6779 -48.341,-33.0108 z"
     id="path40"
     style="stroke-width:1.04412" />
  <path
     fill="#d8d7d7"
     d="m 407.10135,692.51377 c -0.738,-23.8423 -3.291,-60.9848 1.862,-84.2384 -0.47,5.1783 -0.622,10.9127 -0.863,16.1456 0.949,-10.9237 0.979,-17.5411 4.489,-27.9632 -2.093,27.7342 -3.797,70.8946 2.75,97.942 -17.602,11.218 -61.302,4.5897 -81.991,6.334 -21.61,1.8206 -41.675,-8.6779 -48.341,-33.0108 5.654,3.227 10.093,12.7879 15.588,17.5956 8.731,7.8493 23.332,9.0485 34.51,8.9068 23.747,-0.3053 48.353,0.8067 71.996,-1.7116 z"
     id="path41"
     style="stroke-width:1.04412" />
  <path
     fill="#0e4897"
     d="m 498.99935,888.85577 c 14.43,15.764 23.23,16.7016 42.97,15.655 49.62,33.3814 81.86,44.6103 139.23,51.5002 -6.42,6.89 -10.65,11.4361 -18.71,16.1129 -10.91,7.9148 -27.49,13.8018 -40.54,14.7175 -34.49,2.3984 -69.65,1.6026 -104.21,1.5917 l -178.486,-0.087 -155.196,-0.076 c -68.712,-0.011 -124.222004,13.85623 -164.783004,-57.7797 -4.02,-8.7324 -6.262,-16.5926 -8.347,-26.0009 l 2.374,-0.4361 c 3.689,8.22 9.282,23.1337 14.163,30.1436 12.7,18.2496 29.565,32.0514 49.201,39.4646 8.031,3.0743 16.398,4.9712 24.884004,5.658 26.607,2.1804 64.204,1.5045 91.226,1.5481 l 146.708,0.1417 168.826,0.065 c 19.49,-0.022 132.48,3.5758 141.07,-11.6758 -2.14,-1.9951 -28.34,-8.0674 -34.32,-10.1169 -18.2,-6.225 -52.72,-20.5827 -66.76,-33.5886 -15.78,-11.6867 -46.17,-13.0712 -49.3,-36.8372 z"
     id="path42"
     style="stroke-width:1.04412" />
  <path
     fill="#0f4080"
     d="m 498.99935,888.85577 c 14.43,15.764 23.23,16.7016 42.97,15.655 49.62,33.3814 81.86,44.6103 139.23,51.5002 -6.42,6.89 -10.65,11.4361 -18.71,16.1129 -1.08,-0.436 -0.57,-0.076 -1.43,-1.1774 3.23,-2.6273 12.14,-8.0782 13.23,-10.8691 -1.66,-2.1694 -3.21,-2.9544 -5.85,-3.2269 -19,-1.9624 -36.45,-4.7205 -54.46,-12.0356 -7.9,-0.785 -11.56,-4.6769 -17.91,-7.6967 -8.49,-4.0555 -18.74,-5.996 -27.47,-11.2071 l -1.36,-0.8286 c 11.32,13.0277 22.67,11.4143 32.92,17.9772 14.63,9.3755 21.76,7.3805 36.53,13.3983 8.94,3.6412 18.08,1.003 22.48,6.1922 l -0.14,2.8999 -1.21,1.1556 c -6.93,-5.8434 -23.88,-3.4558 -31.06,-6.3993 -13.33,-5.4728 -27.64,-9.7572 -40.71,-15.6224 -11.07,-4.9603 -26.83,-15.3824 -37.75,-18.991 -15.78,-11.6867 -46.17,-13.0712 -49.3,-36.8372 z"
     id="path43"
     style="stroke-width:1.04412" />
  <path
     fill="#d8d7d7"
     d="m 283.78735,459.33889 c 0.432,0.2551 0.871,0.49712 1.296,0.76749 7.363,4.68452 10.458,17.48435 19.665,22.95162 13.309,7.90274 88.448,6.77767 104.611,2.87263 6.64,-1.60366 14.6,-4.04021 19.93,-8.62334 -19.742,28.65437 -75.615,14.45146 -105.456,17.23143 -17.631,1.6429 -31.54,-13.12689 -38.956,-30.08578 z"
     id="path44"
     style="stroke-width:1.04412" />
  <path
     fill="#fbfbfb"
     d="m 75.876346,870.56247 c -2.524,-9.888 -2.844,-16.5054 -2.806,-26.8185 0.083,-22.3379 -3.056,-45.5588 13.069,-62.9145 5.13,-5.4727 11.481,-9.3864 18.425004,-11.3706 18.156,-5.3201 58.497,-1.7443 78.978,-2.1694 54.215,-1.112 49.891,54.967 47.92,94.9222 -2.688,14.325 -7.92,26.3497 -19.423,34.9295 -5.095,3.7502 -10.848,6.2903 -16.894,7.4895 -19.165,3.8702 -45.353,-0.2398 -65.219,1.2864 -24.701,1.9078 -47.309004,-6.8681 -54.050004,-35.3546 z"
     id="path45"
     style="stroke-width:1.04412" />
  <path
     fill="#d8d7d7"
     d="m 75.876346,870.56247 c 5.408,2.0495 9.676,10.3785 13.982,16.2655 6.667,9.1358 20.687004,12.4281 31.559004,12.2646 25.495,-0.447 50.609,2.2021 75.933,-1.5045 24.041,-3.5322 23.324,-25.9245 34.112,-35.3764 -2.688,14.325 -7.92,26.3497 -19.423,34.9295 -5.095,3.7502 -10.848,6.2903 -16.894,7.4895 -19.165,3.8702 -45.353,-0.2398 -65.219,1.2864 -24.701,1.9078 -47.309004,-6.8681 -54.050004,-35.3546 z"
     id="path46"
     style="stroke-width:1.04412" />
  <path
     fill="#fbfbfb"
     d="m 285.10435,874.84687 c -4.456,-17.1813 -4.169,-32.5747 -4.353,-50.2901 -0.187,-17.9771 3.195,-34.9513 16.909,-46.8016 5.377,-4.5788 11.634,-7.7621 18.303,-9.332 18.12,-4.2408 63.315,-0.7849 83.586,-0.7958 42.8,-0.011 43.93,61.6826 39.17,96.2523 -2.45,13.8235 -7.8,25.1287 -18.74,33.2287 -5.08,3.7067 -10.81,6.2468 -16.828,7.4569 -18.617,3.8374 -43.921,-0.2507 -63.231,1.221 -20.881,1.5917 -39.855,-2.2022 -51.263,-23.3517 -1.331,-2.4529 -2.518,-4.9822 -3.553,-7.5877 z"
     id="path47"
     style="stroke-width:1.04412" />
  <path
     fill="#d8d7d7"
     d="m 285.10435,874.84687 c 2.418,-1.0793 1.179,-0.6432 3.716,-1.3082 6.708,15.8403 22.236,25.8373 38.164,25.4449 27.525,-0.6869 56.521,3.3577 83.565,-2.6819 15.14,-3.3796 20.62,-26.0772 28.17,-32.422 -2.45,13.8235 -7.8,25.1287 -18.74,33.2287 -5.08,3.7067 -10.81,6.2468 -16.828,7.4569 -18.617,3.8374 -43.921,-0.2507 -63.231,1.221 -20.881,1.5917 -39.855,-2.2022 -51.263,-23.3517 -1.331,-2.4529 -2.518,-4.9822 -3.553,-7.5877 z"
     id="path48"
     style="stroke-width:1.04412" />
  <path
     fill="#fbfbfb"
     d="m 76.091346,666.08777 c -3.713,-17.7155 -3.067,-33.0326 -3.015,-51.1405 0.041,-14.7502 3.972,-29.4786 14.317,-39.7481 5.273,-5.1893 11.717,-8.7542 18.671004,-10.324 15.77,-3.7284 33.809,-0.4906 49.416,-1.668 70.96,-5.3201 81.465,23.6243 75.592,93.7557 -6.842,41.2526 -34.968,46.0712 -67.692,43.76 -33.67,-2.3875 -74.437004,12.3081 -87.289004,-34.6351 z"
     id="path49"
     style="stroke-width:1.04412" />
  <path
     fill="#d8d7d7"
     d="m 231.07235,656.96287 c -6.842,41.2526 -34.968,46.0712 -67.692,43.76 -33.67,-2.3875 -74.437004,12.3081 -87.289004,-34.6351 14.072,7.2606 10.674,27.1455 41.045004,27.429 26.391,0.2507 51.506,2.2676 78.132,-1.0139 27.499,-3.3905 24.763,-26.8621 35.804,-35.54 z"
     id="path50"
     style="stroke-width:1.04412" />
  <path
     fill="url(#Gradient2)"
     d="m 711.55935,317.626 c 77.56,1.43468 151.54,35.8474 206.16,95.90122 8.19,9.13355 25.57,31.05822 31.2,42.43101 -0.54,2.36897 -0.49,2.23488 -1.76,4.24518 -1.25,-0.38811 -3.49,-1.0662 -4.41,-2.13349 -16.44,-19.15888 -30.65,-38.80071 -49.04,-55.95801 -37.92,-34.82916 -83.37,-58.51557 -132.05,-68.81235 -75.28,-16.49774 -153.49,0.43171 -217.28,47.03377 -17.04,13.37654 -31.94,26.22435 -46.56,42.84746 -6.29,9.00709 -13.85,17.16929 -20.21,26.39224 -22.97,33.29201 -39.16,68.82761 -48.55,109.27344 -1.63,7.0207 -2.84,18.0316 -7.8,24.0276 -0.56,0.6759 -6.13,1.9732 -7.26,2.1586 0.77,-4.5788 1.99,-9.8989 2.92,-14.5104 5.59,-37.01169 25.57,-84.54149 45.22,-114.70031 7.96,-12.22095 16.64,-23.06718 24.48,-35.01668 6.57,-2.00048 14,-14.84175 20.19,-20.64261 11.7,-10.9607 23.27,-20.44639 36.04,-29.84376 5.11,-3.75786 14.95,-9.39738 18.41,-13.17814 53.44,-30.41392 91.37,-37.94163 150.3,-39.51477 z"
     id="path51"
     style="fill:url(#Gradient2);stroke-width:1.04412" />
  <path
     fill="#fdf6d4"
     d="m 497.81935,423.18079 -0.48,-0.89613 c 1.01,-11.30411 35.21,-40.52646 44.81,-43.57352 l 2.23,1.62219 c -17.04,13.37654 -31.94,26.22435 -46.56,42.84746 z"
     id="path52"
     style="stroke-width:1.04412" />
  <path
     fill="#b36e1f"
     d="m 480.90935,843.63497 c 8.78,2.6164 21.45,26.2516 27.58,30.5469 13.12,9.1793 27.79,24.3983 40.41,32.7273 28.06,18.5004 85.15,46.7797 117.83,43.7272 l -0.22,-1.221 c -13.44,-7.0317 -22.13,-5.7125 -35.41,-9.8552 -34.21,-10.6947 -67.85,-27.0039 -96.28,-50.5627 -4.48,-3.7066 -18.73,-15.5896 -21.03,-20.0703 l 0.72,-0.327 c 60.42,58.3029 129.34,83.4208 210.47,79.18 5.57,-0.2944 28.91,-4.3935 31.87,-3.5867 -3.34,1.8533 -27.17,4.5678 -34.44,5.8978 5.31,11.1199 41.26,-5.1783 46.81,-0.6977 -26.71,7.5005 -60.59,8.3072 -88.02,6.6174 -57.37,-6.8899 -89.61,-18.1188 -139.23,-51.5002 -19.74,1.0466 -28.54,0.109 -42.97,-15.655 -8.96,-14.4886 -10.31,-19.9068 -12.65,-37.0445 z"
     id="path53"
     style="stroke-width:1.04412" />
  <path
     fill="#b6b9ba"
     d="m 486.34935,851.81127 c 8.04,6.8355 17.41,19.8741 26.13,28.2685 7.88,7.5768 23.04,17.661 29.49,24.431 -19.74,1.0466 -28.54,0.109 -42.97,-15.655 -8.96,-14.4886 -10.31,-19.9068 -12.65,-37.0445 z"
     id="path54"
     style="stroke-width:1.04412" />
  <path
     fill="#d8d7d7"
     d="m 499.44935,874.44347 c 3.92,1.8206 11.05,11.6868 15.51,14.9137 2.71,1.9515 6.95,3.6304 8.41,5.9415 -11.01,-0.4251 -23.45,-7.8275 -23.92,-20.8552 z"
     id="path55"
     style="stroke-width:1.04412" />
  <path
     fill="url(#Gradient1)"
     d="m 724.07935,407.91387 c 30.63,-2.38423 61.99,3.62922 88.95,19.99504 l -15.91,60.68286 c -26.26,-21.03944 -74.4,-27.95338 -99.29,-0.76531 -19.15,20.92606 -16.55,52.33424 -16.39,79.43621 31.51,0.4361 64.81,-1.221 96.04,0.1526 l -7.79,40.9473 c -28.91,-0.3598 -58.2,-0.098 -87.14,-0.065 1.28,10.9672 2.12,24.431 3.06,35.5944 l 79.53,-0.044 c -2.86,13.5183 -5.56,27.0693 -8.1,40.6639 l -71.21,0.2398 c -0.81,32.095 -8.43,56.7549 -23.93,83.4535 19.61,-1.8097 39.36,-0.7849 58.73,3.0525 30.16,6.1923 54.26,16.0584 84.85,6.781 5.04,-1.5263 12.21,-3.9138 17.24,-4.557 l 1.09,1.668 13.7,56.9947 c -62.43,30.0891 -96.4,6.6066 -158.27,-1.8315 -35.58,-4.8622 -69.04,0.12 -103.09,11.1526 -4.69,-15.1644 -9.34,-34.6678 -13.51,-50.3228 37.95,-29.1951 46.99,-57.3219 50.3,-106.6526 -18.72,-0.3053 -37.93,-0.076 -56.68,-0.098 l 8.08,-40.5984 46.28,0.065 c -0.7,-11.8939 -1.47,-23.7987 -2.29,-35.6817 l -47.94,0.065 c 2.81,-13.6382 5.72,-27.211 7.95,-40.9691 11.92,-0.447 25.44,-0.022 37.5,0.109 -0.59,-41.47056 1.16,-81.82369 27.52,-114.69707 24.1,-30.05743 55.15,-41.9099 90.72,-44.77163 z"
     id="path56"
     style="fill:url(#Gradient1);stroke-width:1.04412" />
</svg>
